<?xml version="1.0" encoding="UTF-8"?>
<svg id="b" data-name="Layer 2" xmlns="http://www.w3.org/2000/svg" viewBox="0 0 941.06 233.82">
  <g id="c" data-name="1080 x 1080 px Logo 2">
    <g id="d" data-name="Text">
      <g>
        <path d="M240.58,142.28l-20.7-89.92c-1.09-4.71-4.28-8.68-8.67-10.78L127.42,1.57c-2.42-1.15-5.09-1.69-7.77-1.55-2.13.11-4.22.64-6.14,1.55L29.74,41.6c-4.39,2.1-7.58,6.06-8.67,10.78L.4,142.3c-.96,4.19-.18,8.58,2.18,12.18.28.44.59.86.91,1.26l57.99,72.1c3.04,3.78,7.65,5.98,12.53,5.98l92.99-.02c4.87,0,9.48-2.19,12.53-5.97l57.97-72.11c3.04-3.78,4.18-8.73,3.1-13.45ZM208.79,146.21l-43.75,54.43c-2.3,2.85-5.78,4.51-9.45,4.5l-70.19.02c-3.68,0-7.16-1.66-9.45-4.51l-43.77-54.42c-.24-.31-.47-.63-.69-.95-1.78-2.72-2.37-6.04-1.64-9.19l15.6-67.87c.82-3.56,3.23-6.55,6.54-8.14l63.23-30.21c1.45-.69,3.03-1.09,4.63-1.17,2.02-.1,4.04.3,5.86,1.17l63.24,30.2c3.32,1.58,5.72,4.58,6.54,8.14l15.62,67.87c.82,3.56-.04,7.3-2.34,10.15Z" style="fill: #02c4a1;"/>
        <path d="M179.28,129.68l-10.42-45.27c-.55-2.37-2.15-4.37-4.36-5.43l-42.18-20.14c-1.22-.58-2.56-.85-3.91-.78-1.07.05-2.12.32-3.09.78l-42.18,20.15c-2.21,1.06-3.82,3.05-4.36,5.43l-10.41,45.27c-.49,2.11-.09,4.32,1.1,6.13.14.22.3.43.46.64l29.19,36.3c1.53,1.9,3.85,3.01,6.31,3.01h46.82c2.45,0,4.77-1.11,6.31-3.02l29.18-36.3c1.53-1.9,2.11-4.4,1.56-6.77ZM163.28,131.66l-22.03,27.4c-1.16,1.43-2.91,2.27-4.76,2.27h-35.34c-1.85,0-3.6-.83-4.76-2.26l-22.03-27.4c-.12-.15-.24-.31-.35-.48-.89-1.37-1.19-3.04-.83-4.63l7.85-34.17c.41-1.79,1.62-3.3,3.29-4.1l31.83-15.21c.73-.35,1.52-.55,2.33-.59,1.02-.05,2.03.15,2.95.59l31.84,15.2c1.67.8,2.88,2.3,3.29,4.1l7.87,34.17c.41,1.79-.02,3.67-1.18,5.11Z" style="fill: #00eeba;"/>
        <g>
          <g>
            <path d="M328.08,95.4c-1.4-2.7-3.51-4.91-6.35-6.63-2.84-1.72-6.07-2.58-9.7-2.58-1.67,0-3.35.19-5.02.56-1.67.37-3.16.98-4.46,1.81-1.3.84-2.35,1.91-3.14,3.21-.79,1.3-1.19,2.84-1.19,4.6,0,3.07,1.26,5.42,3.77,7.05,2.51,1.63,6.46,3,11.86,4.12,7.72,1.58,13.42,3.89,17.09,6.91,3.67,3.02,5.51,7.09,5.51,12.21,0,3.72-.72,6.86-2.16,9.42-1.44,2.56-3.33,4.65-5.65,6.28-2.33,1.63-4.95,2.79-7.88,3.49-2.93.7-5.88,1.05-8.86,1.05-4.93,0-9.72-1.02-14.37-3.07-4.65-2.04-8.47-5.25-11.44-9.63l7.53-5.58c1.67,2.88,4.14,5.3,7.4,7.26,3.26,1.95,6.84,2.93,10.74,2.93,2.05,0,4-.19,5.86-.56,1.86-.37,3.49-1.02,4.88-1.95,1.39-.93,2.51-2.11,3.35-3.56.84-1.44,1.26-3.23,1.26-5.37,0-3.44-1.65-6.02-4.95-7.74-3.3-1.72-8.07-3.32-14.3-4.81-1.95-.46-4.03-1.05-6.21-1.74-2.19-.7-4.21-1.72-6.07-3.07-1.86-1.35-3.4-3.05-4.6-5.09-1.21-2.04-1.81-4.6-1.81-7.67,0-3.35.65-6.21,1.95-8.58,1.3-2.37,3.05-4.33,5.23-5.86,2.18-1.54,4.67-2.67,7.46-3.42,2.79-.74,5.67-1.12,8.65-1.12,4.56,0,8.98,1.02,13.26,3.07,4.28,2.05,7.49,4.93,9.63,8.65l-7.26,5.44Z" style="fill: #0e0e68;"/>
            <path d="M365.34,90.66c1.77-3.81,4.7-6.84,8.79-9.07,4.09-2.23,8.46-3.35,13.12-3.35,8.28,0,14.49,2.47,18.63,7.4,4.14,4.93,6.21,11.44,6.21,19.54v40.05h-9.49v-36.14c0-3.44-.28-6.56-.84-9.35-.56-2.79-1.51-5.18-2.86-7.19-1.35-2-3.16-3.56-5.44-4.67-2.28-1.12-5.14-1.67-8.58-1.67-2.51,0-4.95.51-7.33,1.54-2.37,1.02-4.49,2.58-6.35,4.67-1.86,2.09-3.35,4.74-4.47,7.95s-1.67,7-1.67,11.37v33.49h-9.49V39.73h9.49v50.93h.28Z" style="fill: #0e0e68;"/>
            <path d="M477.8,102.95c0-5.63-1.49-9.83-4.47-12.6-2.98-2.77-7.3-4.16-12.98-4.16-3.91,0-7.54.7-10.88,2.09s-6.19,3.26-8.51,5.58l-5.3-6.28c2.7-2.7,6.26-4.93,10.67-6.7,4.42-1.77,9.42-2.65,15-2.65,3.53,0,6.84.49,9.91,1.47,3.07.98,5.77,2.44,8.09,4.4,2.32,1.95,4.14,4.42,5.44,7.4,1.3,2.98,1.95,6.47,1.95,10.46v28.6c0,2.51.09,5.12.28,7.81.19,2.7.46,4.98.84,6.84h-8.51c-.28-1.58-.51-3.3-.7-5.16-.19-1.86-.28-3.67-.28-5.44h-.28c-2.98,4.37-6.35,7.51-10.12,9.42s-8.3,2.86-13.6,2.86c-2.51,0-5.09-.35-7.74-1.05-2.65-.7-5.07-1.84-7.26-3.43-2.19-1.59-4-3.64-5.44-6.16-1.44-2.52-2.16-5.6-2.16-9.24,0-5.04,1.28-9.03,3.84-11.97,2.56-2.94,5.98-5.13,10.26-6.58,4.28-1.45,9.19-2.38,14.72-2.8,5.53-.42,11.28-.63,17.23-.63v-2.08ZM475.01,112.57c-3.91,0-7.84.16-11.79.49-3.96.33-7.54.98-10.74,1.95-3.21.98-5.84,2.4-7.88,4.26-2.05,1.86-3.07,4.33-3.07,7.4,0,2.33.44,4.28,1.33,5.86.88,1.58,2.07,2.86,3.56,3.84,1.49.98,3.14,1.67,4.95,2.09,1.81.42,3.65.63,5.51.63,3.35,0,6.33-.58,8.93-1.74,2.6-1.16,4.79-2.74,6.56-4.74,1.77-2,3.12-4.3,4.05-6.91.93-2.6,1.4-5.35,1.4-8.23v-4.88h-2.79Z" style="fill: #0e0e68;"/>
            <path d="M511.01,87.45c-.09-2.79-.23-5.3-.42-7.53h9.07c.18,1.77.32,3.72.42,5.86.09,2.14.14,3.91.14,5.3h.28c1.86-3.81,4.65-6.91,8.37-9.28,3.72-2.37,7.91-3.56,12.56-3.56,1.21,0,2.3.05,3.28.14.98.09,1.97.28,3,.56l-1.26,9.07c-.56-.19-1.49-.37-2.79-.56-1.3-.19-2.61-.28-3.91-.28-2.51,0-4.93.46-7.26,1.39-2.33.93-4.35,2.39-6.07,4.38-1.72,2-3.12,4.55-4.19,7.65-1.07,3.11-1.6,6.85-1.6,11.21v33.41h-9.49v-50.93c0-1.77-.05-4.05-.14-6.84Z" style="fill: #0e0e68;"/>
            <path d="M618.31,110.61v2.09c0,.75-.05,1.53-.14,2.37h-54.14c.09,3.26.74,6.33,1.95,9.21,1.21,2.88,2.88,5.4,5.02,7.54,2.14,2.14,4.65,3.84,7.53,5.09,2.88,1.26,6,1.88,9.35,1.88,4.93,0,9.19-1.14,12.77-3.42,3.58-2.28,6.3-4.91,8.16-7.88l7.12,5.58c-3.91,4.93-8.21,8.47-12.91,10.6-4.7,2.14-9.75,3.21-15.14,3.21-4.84,0-9.33-.86-13.47-2.58-4.14-1.72-7.7-4.12-10.67-7.19-2.98-3.07-5.33-6.7-7.05-10.88-1.72-4.19-2.58-8.74-2.58-13.67s.84-9.49,2.51-13.67c1.67-4.19,4-7.81,6.98-10.88,2.98-3.07,6.46-5.46,10.46-7.19,4-1.72,8.32-2.58,12.98-2.58,5.12,0,9.63.86,13.54,2.58,3.91,1.72,7.16,4.05,9.77,6.98,2.6,2.93,4.58,6.35,5.93,10.26,1.35,3.91,2.02,8.09,2.02,12.56ZM608.69,107.54c-.28-6.14-2.26-11.23-5.93-15.28-3.68-4.05-8.91-6.07-15.7-6.07-3.16,0-6.09.58-8.79,1.74-2.7,1.16-5.07,2.75-7.12,4.74-2.05,2-3.68,4.28-4.88,6.84-1.21,2.56-1.91,5.23-2.09,8.02h44.51Z" style="fill: #0e0e68;"/>
            <path d="M650.82,107.82h.42l27.77-28.74h17.58l-30.98,30,33.63,36.14h-18.14l-29.86-34.33h-.42v34.33h-13.12V39.73h13.12v68.09Z" style="fill: #0e0e68;"/>
            <path d="M755.9,145.22c-.19-1.67-.33-3.56-.42-5.65-.09-2.09-.14-3.84-.14-5.23h-.28c-1.67,3.54-4.49,6.54-8.44,9-3.95,2.46-8.35,3.7-13.19,3.7-4.28,0-7.98-.7-11.09-2.09-3.12-1.4-5.67-3.32-7.67-5.79-2-2.46-3.49-5.32-4.47-8.58-.98-3.25-1.46-6.74-1.46-10.47v-41.02h13.12v36.56c0,2.7.21,5.28.63,7.74.42,2.47,1.19,4.63,2.3,6.49,1.12,1.86,2.65,3.35,4.6,4.47,1.95,1.12,4.46,1.67,7.54,1.67,5.3,0,9.58-1.98,12.84-5.93,3.26-3.95,4.88-9.23,4.88-15.84v-35.16h13.12v51.91c0,1.77.04,4.05.14,6.84.09,2.79.23,5.26.42,7.4h-12.42Z" style="fill: #0e0e68;"/>
            <path d="M803.48,134.75v10.47h-12.7V39.73h13.12v49.26h.42c2.23-3.26,5.33-6.02,9.33-8.3,3.99-2.28,8.72-3.42,14.2-3.42,4.92,0,9.39.89,13.43,2.65,4.04,1.77,7.51,4.23,10.44,7.4,2.92,3.16,5.17,6.86,6.75,11.09,1.58,4.23,2.37,8.77,2.37,13.6s-.79,9.4-2.37,13.67c-1.58,4.28-3.8,8-6.68,11.16-2.88,3.16-6.36,5.65-10.44,7.46-4.08,1.81-8.68,2.72-13.78,2.72-4.73,0-9.23-1.05-13.5-3.14-4.27-2.09-7.7-5.14-10.3-9.14h-.28ZM847.43,112.08c0-3.06-.47-6.03-1.4-8.9-.93-2.87-2.33-5.42-4.19-7.65-1.86-2.23-4.16-3.99-6.91-5.29-2.75-1.3-5.93-1.95-9.56-1.95-3.35,0-6.4.65-9.14,1.95-2.75,1.3-5.09,3.06-7.05,5.29-1.95,2.23-3.47,4.78-4.53,7.65-1.07,2.88-1.61,5.89-1.61,9.04s.53,6.17,1.61,9.04c1.07,2.88,2.58,5.4,4.53,7.58,1.95,2.18,4.3,3.92,7.05,5.22,2.74,1.3,5.79,1.95,9.14,1.95,3.63,0,6.81-.67,9.56-2.02,2.74-1.35,5.04-3.13,6.91-5.36,1.86-2.23,3.26-4.78,4.19-7.65.93-2.87,1.4-5.84,1.4-8.9Z" style="fill: #0e0e68;"/>
            <path d="M941.06,111.59v2.23c0,.75-.05,1.49-.14,2.23h-52.61c.09,2.77.72,5.38,1.88,7.83,1.16,2.45,2.72,4.57,4.67,6.38,1.95,1.8,4.21,3.21,6.77,4.23,2.56,1.02,5.28,1.52,8.16,1.52,4.46,0,8.32-.98,11.58-2.93,3.25-1.95,5.81-4.33,7.67-7.12l9.21,7.4c-3.54,4.69-7.7,8.14-12.49,10.35-4.79,2.21-10.12,3.32-15.98,3.32-5.02,0-9.68-.84-13.95-2.51-4.28-1.67-7.95-4.02-11.02-7.05-3.07-3.02-5.49-6.67-7.26-10.95-1.77-4.28-2.65-9.02-2.65-14.23s.86-9.84,2.59-14.16c1.72-4.33,4.12-8.02,7.2-11.09s6.71-5.46,10.91-7.19c4.19-1.72,8.71-2.58,13.56-2.58s9.25.79,13.21,2.37c3.96,1.58,7.32,3.86,10.07,6.84,2.75,2.98,4.87,6.58,6.36,10.81,1.49,4.23,2.24,9,2.24,14.3ZM927.66,106.29c-.09-2.6-.54-5.04-1.33-7.33-.79-2.28-1.95-4.26-3.49-5.93-1.53-1.67-3.44-3-5.72-3.98-2.28-.98-4.95-1.47-8.02-1.47-2.79,0-5.42.49-7.88,1.47-2.47.98-4.6,2.3-6.42,3.98-1.81,1.67-3.3,3.65-4.46,5.93-1.16,2.28-1.84,4.72-2.02,7.33h39.35Z" style="fill: #0e0e68;"/>
          </g>
          <g>
            <path d="M873.79,191.22c0-.73.27-1.36.81-1.88.54-.52,1.18-.79,1.94-.79s1.37.25,1.92.75c.55.5.82,1.12.82,1.85s-.27,1.36-.81,1.88c-.54.53-1.18.79-1.93.79-.37,0-.71-.07-1.04-.21-.33-.14-.62-.32-.87-.55-.25-.23-.45-.5-.6-.82-.15-.32-.22-.66-.22-1.03Z" style="fill: #00eeba;"/>
            <path d="M900.16,193.61h-3.91v-2.47h-.07c-.57.96-1.36,1.69-2.38,2.19-1.02.5-2.11.75-3.27.75-1.26,0-2.38-.23-3.37-.7-.99-.47-1.84-1.1-2.53-1.88-.7-.79-1.23-1.71-1.61-2.77s-.57-2.2-.57-3.41.19-2.34.58-3.39c.39-1.05.94-1.96,1.64-2.74.71-.78,1.55-1.39,2.53-1.83s2.06-.67,3.22-.67c.75,0,1.43.09,2.02.26s1.11.38,1.56.63c.44.25.83.53,1.15.82.32.3.58.58.79.86h.1v-11.54h4.11v25.89ZM886.63,185.32c0,.64.1,1.28.29,1.92.19.64.48,1.21.87,1.71.39.5.88.91,1.47,1.23.59.32,1.29.48,2.09.48.75,0,1.43-.15,2.02-.46.59-.31,1.1-.71,1.52-1.22.42-.5.74-1.07.96-1.7.22-.63.33-1.26.33-1.9s-.11-1.28-.33-1.92c-.22-.64-.54-1.21-.96-1.71-.42-.5-.93-.91-1.52-1.23-.59-.32-1.27-.48-2.02-.48-.8,0-1.5.15-2.09.46-.59.31-1.09.71-1.47,1.22-.39.5-.68,1.07-.87,1.7-.19.63-.29,1.26-.29,1.9Z" style="fill: #00eeba;"/>
            <path d="M920.85,185.6v.55c0,.18-.01.37-.03.55h-12.5c.05.59.2,1.14.46,1.63.26.49.61.91,1.04,1.27s.92.63,1.47.84,1.12.31,1.71.31c1.03,0,1.89-.19,2.6-.57.71-.38,1.29-.9,1.75-1.56l2.74,2.19c-1.62,2.19-3.97,3.29-7.06,3.29-1.28,0-2.45-.2-3.53-.6-1.07-.4-2-.96-2.79-1.7-.79-.73-1.4-1.63-1.85-2.69-.44-1.06-.67-2.27-.67-3.61s.22-2.53.67-3.61,1.06-2.01,1.83-2.77c.78-.76,1.7-1.36,2.76-1.78,1.06-.42,2.21-.63,3.44-.63,1.14,0,2.2.19,3.17.57.97.38,1.81.94,2.52,1.68.71.74,1.26,1.67,1.66,2.77.4,1.11.6,2.4.6,3.89ZM916.74,183.75c0-.52-.07-1.03-.22-1.51-.15-.48-.38-.9-.7-1.27s-.73-.66-1.22-.87c-.49-.22-1.07-.33-1.73-.33-1.23,0-2.28.37-3.13,1.11-.86.74-1.33,1.7-1.42,2.86h8.43Z" style="fill: #00eeba;"/>
            <path d="M922.36,177.17h4.49l4.32,11.99h.07l4.35-11.99h4.35l-6.54,16.44h-4.38l-6.65-16.44Z" style="fill: #00eeba;"/>
          </g>
        </g>
      </g>
    </g>
  </g>
</svg>