<?xml version="1.0" encoding="UTF-8"?>
<svg id="b" data-name="Layer 2" xmlns="http://www.w3.org/2000/svg" viewBox="0 0 240.98 233.82">
  <g id="c" data-name="b">
    <g>
      <path d="M240.58,142.28l-20.7-89.92c-1.09-4.71-4.28-8.68-8.67-10.78L127.42,1.57c-2.42-1.15-5.09-1.69-7.77-1.55-2.13.11-4.22.64-6.14,1.55L29.74,41.6c-4.39,2.1-7.58,6.06-8.67,10.78L.4,142.3c-.96,4.19-.18,8.58,2.18,12.18.28.44.59.86.91,1.26l57.99,72.1c3.04,3.78,7.65,5.98,12.53,5.98l92.99-.02c4.87,0,9.48-2.19,12.53-5.97l57.97-72.11c3.04-3.78,4.18-8.73,3.1-13.45ZM208.79,146.21l-43.75,54.43c-2.3,2.85-5.78,4.51-9.45,4.5l-70.19.02c-3.68,0-7.16-1.66-9.45-4.51l-43.77-54.42c-.24-.31-.47-.63-.69-.95-1.78-2.72-2.37-6.04-1.64-9.19l15.6-67.87c.82-3.56,3.23-6.55,6.54-8.14l63.23-30.21c1.45-.69,3.03-1.09,4.63-1.17,2.02-.1,4.04.3,5.86,1.17l63.24,30.2c3.32,1.58,5.72,4.58,6.54,8.14l15.62,67.87c.82,3.56-.04,7.3-2.34,10.15Z" style="fill: #02c4a1;"/>
      <path d="M179.28,129.68l-10.42-45.27c-.55-2.37-2.15-4.37-4.36-5.43l-42.18-20.14c-1.22-.58-2.56-.85-3.91-.78-1.07.05-2.12.32-3.09.78l-42.18,20.15c-2.21,1.06-3.82,3.05-4.36,5.43l-10.41,45.27c-.49,2.11-.09,4.32,1.1,6.13.14.22.3.43.46.64l29.19,36.3c1.53,1.9,3.85,3.01,6.31,3.01h46.82c2.45,0,4.77-1.11,6.31-3.02l29.18-36.3c1.53-1.9,2.11-4.4,1.56-6.77ZM163.28,131.66l-22.03,27.4c-1.16,1.43-2.91,2.27-4.76,2.27h-35.34c-1.85,0-3.6-.83-4.76-2.26l-22.03-27.4c-.12-.15-.24-.31-.35-.48-.89-1.37-1.19-3.04-.83-4.63l7.85-34.17c.41-1.79,1.62-3.3,3.29-4.1l31.83-15.21c.73-.35,1.52-.55,2.33-.59,1.02-.05,2.03.15,2.95.59l31.84,15.2c1.67.8,2.88,2.3,3.29,4.1l7.87,34.17c.41,1.79-.02,3.67-1.18,5.11Z" style="fill: #00eeba;"/>
    </g>
  </g>
</svg>